<?xml version="1.0" encoding="UTF-8"?>
<svg version="1.1" xmlns="http://www.w3.org/2000/svg" width="650" height="520">
<path d="M0 0 C214.5 0 429 0 650 0 C650 171.6 650 343.2 650 520 C435.5 520 221 520 0 520 C0 348.4 0 176.8 0 0 Z " fill="#F1FEFD" transform="translate(0,0)"/>
<path d="M0 0 C3.81642962 2.93268412 7.14116039 5.89818127 10.2109375 9.59765625 C14.67922243 13.24523578 18.71898455 12.63135814 24.2734375 12.09765625 C24.49749098 15.3090894 24.40095555 17.73210452 23.3359375 20.78515625 C20.28663817 24.20406762 16.62044502 24.97672978 12.2734375 26.09765625 C13.23209259 28.42841554 13.23209259 28.42841554 16.2734375 30.09765625 C5.21934769 36.12715978 -6.71051058 38.29904514 -19.1015625 34.84765625 C-23.31453061 33.40891387 -26.96635834 31.46821974 -30.7265625 29.09765625 C-29.0765625 32.06765625 -27.4265625 35.03765625 -25.7265625 38.09765625 C-31.54503724 37.05554137 -35.35795591 36.32534005 -39.7265625 32.09765625 C-39.96890625 32.70351562 -40.21125 33.309375 -40.4609375 33.93359375 C-42.8828125 39.98828125 -45.3046875 46.04296875 -47.7265625 52.09765625 C-48.63148438 51.95457031 -48.63148438 51.95457031 -49.5546875 51.80859375 C-50.35390625 51.69773438 -51.153125 51.586875 -51.9765625 51.47265625 C-52.76546875 51.35664063 -53.554375 51.240625 -54.3671875 51.12109375 C-57.0872404 51.09407336 -58.46142089 51.62431193 -60.7265625 53.09765625 C-61.96278074 55.57009272 -61.71064851 56.87083564 -61.4140625 59.59765625 C-61.33542969 60.39171875 -61.25679687 61.18578125 -61.17578125 62.00390625 C-60.8800383 64.30620534 -60.8800383 64.30620534 -58.7265625 66.09765625 C-57.5921875 66.18015625 -56.4578125 66.26265625 -55.2890625 66.34765625 C-53.525625 66.71890625 -53.525625 66.71890625 -51.7265625 67.09765625 C-49.9765625 69.97265625 -49.9765625 69.97265625 -48.7265625 73.09765625 C-47.74490656 74.11566982 -46.75064818 75.12233655 -45.7265625 76.09765625 C-45.7265625 76.75765625 -45.7265625 77.41765625 -45.7265625 78.09765625 C-44.6953125 78.15953125 -43.6640625 78.22140625 -42.6015625 78.28515625 C-38.7265625 79.09765625 -38.7265625 79.09765625 -35.7265625 81.66015625 C-32.89385156 84.40421159 -32.89385156 84.40421159 -29.1015625 84.53515625 C-25.8531518 84.31524118 -25.8531518 84.31524118 -23.7265625 83.03515625 C-20.62809848 81.58275124 -17.99557787 82.46899945 -14.7265625 83.09765625 C-16.67069729 90.38421023 -19.08078035 97.46786759 -22.7265625 104.09765625 C-25.79086026 105.62980513 -28.3431267 105.32704173 -31.7265625 105.09765625 C-32.5515625 104.58203125 -33.3765625 104.06640625 -34.2265625 103.53515625 C-36.75162151 101.80688143 -36.75162151 101.80688143 -40.2265625 102.09765625 C-44.47059522 103.31023703 -46.20547539 104.47359353 -48.7265625 108.09765625 C-48.91648162 111.64281314 -48.79756242 113.89045981 -46.375 116.62109375 C-41.12576484 121.09457987 -37.61905059 121.4309194 -30.9140625 121.390625 C-25.04083623 120.85080641 -20.55818693 118.31873921 -15.7265625 115.09765625 C-14.4065625 115.09765625 -13.0865625 115.09765625 -11.7265625 115.09765625 C-11.7265625 116.08765625 -11.7265625 117.07765625 -11.7265625 118.09765625 C-9.7465625 118.59265625 -9.7465625 118.59265625 -7.7265625 119.09765625 C-7.7265625 120.41765625 -7.7265625 121.73765625 -7.7265625 123.09765625 C-11.44452889 124.68417252 -15.12256005 125.73777784 -19.0390625 126.72265625 C-30.90057902 130.10275191 -44.14587393 134.98867209 -50.7265625 146.09765625 C-52.15282173 149.39700098 -53.46254061 152.73315127 -54.7265625 156.09765625 C-53.80246582 156.09241943 -52.87836914 156.08718262 -51.92626953 156.08178711 C-47.56803552 156.06046291 -43.2098319 156.04641578 -38.8515625 156.03515625 C-37.66989502 156.03124374 -37.66989502 156.03124374 -36.46435547 156.0272522 C-24.7691872 155.9955495 -13.13549031 156.21739329 -1.46142578 157.00561523 C-0.4764209 157.06048096 0.50858398 157.11534668 1.5234375 157.171875 C2.37421875 157.22947998 3.225 157.28708496 4.1015625 157.34643555 C6.84631942 157.032035 7.3734257 156.0041845 9.2734375 154.09765625 C11.44995117 153.84887695 11.44995117 153.84887695 13.94140625 154.0234375 C15.1483313 154.09558472 15.1483313 154.09558472 16.37963867 154.16918945 C17.39646729 154.2487085 18.4132959 154.32822754 19.4609375 154.41015625 C22.6990625 154.63703125 25.9371875 154.86390625 29.2734375 155.09765625 C29.2734375 144.53765625 29.2734375 133.97765625 29.2734375 123.09765625 C32.2434375 123.09765625 35.2134375 123.09765625 38.2734375 123.09765625 C38.2734375 120.78765625 38.2734375 118.47765625 38.2734375 116.09765625 C31.3434375 116.09765625 24.4134375 116.09765625 17.2734375 116.09765625 C17.2734375 104.21765625 17.2734375 92.33765625 17.2734375 80.09765625 C20.2434375 80.09765625 23.2134375 80.09765625 26.2734375 80.09765625 C26.2734375 77.78765625 26.2734375 75.47765625 26.2734375 73.09765625 C30.5634375 73.09765625 34.8534375 73.09765625 39.2734375 73.09765625 C39.2734375 75.40765625 39.2734375 77.71765625 39.2734375 80.09765625 C42.2434375 80.09765625 45.2134375 80.09765625 48.2734375 80.09765625 C48.2734375 77.78765625 48.2734375 75.47765625 48.2734375 73.09765625 C52.2334375 73.09765625 56.1934375 73.09765625 60.2734375 73.09765625 C60.2734375 75.40765625 60.2734375 77.71765625 60.2734375 80.09765625 C63.2434375 80.09765625 66.2134375 80.09765625 69.2734375 80.09765625 C69.2734375 91.97765625 69.2734375 103.85765625 69.2734375 116.09765625 C70.2634375 116.09765625 71.2534375 116.09765625 72.2734375 116.09765625 C72.2734375 118.07765625 72.2734375 120.05765625 72.2734375 122.09765625 C75.2434375 122.09765625 78.2134375 122.09765625 81.2734375 122.09765625 C81.2734375 132.98765625 81.2734375 143.87765625 81.2734375 155.09765625 C90.5134375 155.09765625 99.7534375 155.09765625 109.2734375 155.09765625 C109.6034375 153.77765625 109.9334375 152.45765625 110.2734375 151.09765625 C112.70241115 148.49267001 114.07676135 148.11673338 117.65625 147.76953125 C118.89117187 147.7953125 120.12609375 147.82109375 121.3984375 147.84765625 C122.63851562 147.863125 123.87859375 147.87859375 125.15625 147.89453125 C128.2734375 148.09765625 128.2734375 148.09765625 130.2734375 149.09765625 C130.2734375 151.07765625 130.2734375 153.05765625 130.2734375 155.09765625 C131.2634375 155.09765625 132.2534375 155.09765625 133.2734375 155.09765625 C133.3971875 154.47890625 133.5209375 153.86015625 133.6484375 153.22265625 C134.2734375 151.09765625 134.2734375 151.09765625 136.2734375 149.09765625 C139.77500989 147.83164152 143.27108865 147.96439231 146.9609375 147.97265625 C148.11980469 147.97007812 149.27867187 147.9675 150.47265625 147.96484375 C153.2734375 148.09765625 153.2734375 148.09765625 154.2734375 149.09765625 C154.64429843 154.93871585 154.64429843 154.93871585 154.2734375 157.09765625 C149.24800461 160.44794484 144.31364856 160.24267494 138.42398071 160.22463989 C137.63964389 160.22619988 136.85530707 160.22775987 136.04720247 160.22936714 C133.42158586 160.23335221 130.79602719 160.2301969 128.17041016 160.22705078 C126.28583238 160.22840612 124.40125487 160.23018681 122.51667786 160.23236084 C117.39368559 160.23692495 112.27071344 160.2351483 107.14772081 160.23198175 C101.76794411 160.22944622 96.38816911 160.23179964 91.00839233 160.23336792 C81.95448499 160.23518894 72.90058579 160.232788 63.84667969 160.22802734 C53.43319972 160.22261442 43.01973942 160.22432589 32.60625994 160.22985375 C23.63602076 160.23442231 14.66578743 160.23501638 5.69554746 160.23241508 C0.35223086 160.23086894 -4.99107657 160.23061168 -10.33439255 160.23395157 C-48.61084844 160.25433403 -48.61084844 160.25433403 -62.77197266 159.71435547 C-64.11147256 159.66884143 -64.11147256 159.66884143 -65.47803307 159.62240791 C-69.60245694 159.42408681 -71.95561418 158.98313041 -75.7265625 157.09765625 C-70.4465625 156.43765625 -65.1665625 155.77765625 -59.7265625 155.09765625 C-60.9640625 154.23140625 -62.2015625 153.36515625 -63.4765625 152.47265625 C-68.91520282 148.37926265 -72.18312155 143.78590035 -73.7265625 137.09765625 C-75.52372147 116.20568325 -66.17005934 98.9020273 -53.5234375 83.09375 C-51.7265625 81.09765625 -51.7265625 81.09765625 -48.7265625 79.09765625 C-49.37882812 79.071875 -50.03109375 79.04609375 -50.703125 79.01953125 C-52.01410156 78.93445313 -52.01410156 78.93445313 -53.3515625 78.84765625 C-54.21007812 78.80125 -55.06859375 78.75484375 -55.953125 78.70703125 C-64.91902456 76.73705895 -73.09172171 67.33792014 -77.9921875 59.79296875 C-83.18603641 50.48204449 -84.11160572 42.14658664 -82.3125 31.69140625 C-80.5558423 25.78903636 -76.06056641 21.30283627 -71.7265625 17.09765625 C-71.0665625 16.76765625 -70.4065625 16.43765625 -69.7265625 16.09765625 C-73.07029725 16.65494538 -75.75969249 17.44939514 -78.7265625 19.09765625 C-78.47362987 15.6830658 -77.46707661 14.84970306 -74.9140625 12.41015625 C-71.7265625 10.09765625 -71.7265625 10.09765625 -69.4765625 9.66015625 C-68.8990625 9.47453125 -68.3215625 9.28890625 -67.7265625 9.09765625 C-67.4584375 8.21078125 -67.1903125 7.32390625 -66.9140625 6.41015625 C-65.30212105 1.91368799 -62.46080187 -0.08668733 -58.7265625 -2.90234375 C-57.48109845 -0.41141564 -57.9498047 0.50846358 -58.7265625 3.09765625 C-58.22769531 2.7109375 -57.72882813 2.32421875 -57.21484375 1.92578125 C-40.98717488 -9.84437714 -16.69412668 -11.64762134 0 0 Z " fill="#4EC7EC" transform="translate(274.7265625,109.90234375)"/>
<path d="M0 0 C4.61513112 1.31860889 8.09897612 3.21355437 12 6 C12.845625 5.34 13.69125 4.68 14.5625 4 C18.54681331 1.68185408 20.46982582 1.25869877 25 2 C27.9375 4.5 27.9375 4.5 30 7 C29.11248047 7.03867188 29.11248047 7.03867188 28.20703125 7.078125 C22.9279987 7.45704414 19.89363339 8.10636661 16 12 C16.9590625 11.505 16.9590625 11.505 17.9375 11 C22.78149761 9.41828649 27.38291451 8.90915757 32.18359375 10.91015625 C40.13983027 15.58764124 43.77222489 21.17774791 46.28125 29.94921875 C48.46355625 40.29663443 47.48997975 51.6288024 46 62 C45.81362722 65.12586816 45.77000548 68.24414284 45.75 71.375 C45.729375 72.17421875 45.70875 72.9734375 45.6875 73.796875 C45.65390935 78.98663052 46.51923614 83.04338779 48.30566406 87.90136719 C50.56854973 94.74094707 49.97125581 102.84288055 47.0625 109.375 C43.2535178 115.90622089 37.70767968 121.15488827 30.6875 124.0625 C27.18478789 124.95302003 26.2301197 125.01966251 23 124 C22.505 120.04 22.505 120.04 22 116 C17.88615934 117.12928959 13.94388909 118.37885042 10 120 C10.62279669 121.58420129 11.24833401 123.16732531 11.875 124.75 C12.22304688 125.63171875 12.57109375 126.5134375 12.9296875 127.421875 C13.93215809 129.95543201 13.93215809 129.95543201 15.12109375 132.09375 C17.12899305 136.44866048 16.07380975 141.7192645 15.3125 146.3125 C14.67232993 149.82616349 14.67232993 149.82616349 16.0625 151.9375 C18.65218387 153.35764922 21.08486382 153.67609598 24 154 C24.33 156.64 24.66 159.28 25 162 C15.90887754 167.80821713 3.24893433 166.16434488 -7.125 166.125 C-9.01955933 166.12101196 -9.01955933 166.12101196 -10.95239258 166.11694336 C-18.20593275 166.08036778 -25.44400821 165.95489999 -32.6875 165.5625 C-33.78118896 165.50376709 -33.78118896 165.50376709 -34.89697266 165.44384766 C-39.73161325 165.13419338 -39.73161325 165.13419338 -42 164 C-42.35765342 147.69586107 -39.56845258 131.62607411 -36.0625 115.75 C-35.82192871 114.65695557 -35.58135742 113.56391113 -35.33349609 112.43774414 C-33.65457735 105.12882151 -31.49270327 98.07125115 -29 91 C-26.69 91.66 -24.38 92.32 -22 93 C-22 95.97 -22 98.94 -22 102 C-17.38 102 -12.76 102 -8 102 C-7.7525 99.7415625 -7.7525 99.7415625 -7.5 97.4375 C-6.67128578 94.55324954 -5.96868256 92.63455213 -3.40039062 90.95214844 C-0.67335353 89.6303277 2.11585209 88.55079782 4.95117188 87.48535156 C9.98148615 85.57110075 12.98227148 83.58123567 16.48828125 79.421875 C18.34976337 77.6710236 19.69568595 77.39138234 22.1875 76.9375 C26.14944235 76.32579013 26.14944235 76.32579013 28.5625 73.3125 C30.30099962 69.30639219 30.12508169 67.17887483 29 63 C26.2528004 60.2528004 24.14249073 60.71961355 20.38671875 60.63671875 C14.62013468 59.0983338 11.43785043 52.98923295 8.4375 48.1875 C8.04763916 47.57092529 7.65777832 46.95435059 7.25610352 46.3190918 C0 34.71938504 0 34.71938504 0 30 C-0.66 30 -1.32 30 -2 30 C-2.0825 30.721875 -2.165 31.44375 -2.25 32.1875 C-3.60422596 37.26584736 -6.67663546 39.96759835 -11.0390625 42.640625 C-12.56187513 43.52058939 -14.09072017 44.39018547 -15.625 45.25 C-16.40101563 45.69601563 -17.17703125 46.14203125 -17.9765625 46.6015625 C-23.28013393 49.64006696 -23.28013393 49.64006696 -26 51 C-25.42415568 48.61435923 -24.77772405 46.33317216 -24 44 C-24.50789063 44.54269531 -25.01578125 45.08539063 -25.5390625 45.64453125 C-26.22742188 46.35996094 -26.91578125 47.07539062 -27.625 47.8125 C-28.63433594 48.87404297 -28.63433594 48.87404297 -29.6640625 49.95703125 C-32 52 -32 52 -35.16015625 53.2890625 C-38.34909187 54.7963071 -38.34909187 54.7963071 -39.20703125 58.50390625 C-39.4355426 59.85251948 -39.63668256 61.20601067 -39.8125 62.5625 C-40.97222222 69.94444444 -40.97222222 69.94444444 -42 72 C-42.99 72 -43.98 72 -45 72 C-48.79550102 66.42535787 -49.48908015 62.67050986 -49 56 C-49 55.34 -49 54.68 -49 54 C-50.65 54.99 -52.3 55.98 -54 57 C-53.505 55.2984375 -53.505 55.2984375 -53 53.5625 C-52.07306928 49.59172921 -51.99912334 45.9618009 -52.16625977 41.89404297 C-52.54927885 31.80154595 -50.78449095 24.67485634 -44.08984375 16.734375 C-35.64506422 8.46322645 -22.47934658 1.80207053 -10.5625 1.625 C-5.07744922 1.70076037 -1.65974821 3.18656712 3 6 C2.01 4.02 1.02 2.04 0 0 Z " fill="#C69267" transform="translate(409,73)"/>
<path d="M0 0 C10.17975343 5.92979036 15.68554764 14.54733855 19.2421875 25.62890625 C23.68209531 44.26066223 18.83299466 62.35984798 9.3671875 78.37890625 C4.29022076 86.37242835 -4.57156088 91.94333416 -13.6328125 94.37890625 C-28.53839464 95.9479149 -42.58810634 91.48358848 -54.328125 82.26171875 C-62.57379784 74.75446437 -67.33505503 66.24789854 -68.1328125 55.1171875 C-68.75769334 38.35173648 -66.12026972 21.95971356 -54.53125 9.03515625 C-40.74328813 -4.02199492 -17.58918476 -7.48975672 0 0 Z " fill="#1BA277" transform="translate(492.6328125,318.62109375)"/>
<path d="M0 0 C3.52170516 3.27245206 5.81824858 6.42482099 6.375 11.25 C5.87558843 16.24411574 4.55256956 17.52817066 1 21 C-2.49880314 23.56578897 -5.75663302 23.34220701 -10 23 C-11.59245836 22.52987151 -13.17555294 22.02731481 -14.75 21.5 C-20.19785072 19.76167817 -25.31581202 19.19190866 -31 20 C-34.91278775 22.03791029 -36.94369703 24.6632196 -38.4921875 28.828125 C-40.91084389 39.17253233 -38.15070358 48.32873356 -33.125 57.375 C-28.93769885 62.7217947 -28.93769885 62.7217947 -22.90625 65.37890625 C-20.4780788 65.49625258 -20.4780788 65.49625258 -17 65 C-14.71271266 63.16116119 -14.71271266 63.16116119 -14.875 60.375 C-14.91625 59.59125 -14.9575 58.8075 -15 58 C-15.67546875 57.69707031 -16.3509375 57.39414062 -17.046875 57.08203125 C-26.6643369 52.56515969 -26.6643369 52.56515969 -29 48 C-29.65881723 43.91533319 -29.91155711 41.59834671 -27.859375 38 C-24.65364207 33.95065314 -22.08440948 32.28627066 -17 31 C-8.0902244 30.19849299 1.27004213 29.8894017 9 35 C13.69409249 39.20274823 17.56771121 43.68511745 18.2109375 50.10546875 C18.70218292 61.98982902 15.15794008 73.08582166 7.21875 82 C-0.86990499 89.69085229 -9.58149665 92.76578149 -20.58618164 92.58959961 C-33.26126897 91.93688407 -44.1998203 85.90499942 -53.02734375 76.94140625 C-64.16496196 63.65912633 -67.0758525 48.29501431 -66.23388672 31.515625 C-65.22686216 20.68432954 -58.84312711 10.44602138 -50.98828125 3.125 C-35.55492134 -9.00337714 -16.69980128 -10.53063071 0 0 Z " fill="#1BA377" transform="translate(376,320)"/>
<path d="M0 0 C6.54146328 2.7861788 11.36669084 9.16428441 14.12109375 15.6328125 C15.22162505 19.05770245 16.13078716 22.5114025 17 26 C17.46586253 27.81127081 17.93203304 29.62246242 18.3984375 31.43359375 C19.71516913 36.59026458 20.980459 41.75850438 22.23876953 46.9296875 C22.96208419 49.8470721 23.72244407 52.75186786 24.49609375 55.65625 C30.89837692 80.14050795 30.89837692 80.14050795 26.59375 90.328125 C24.30262642 94.16912629 22.2002234 95.59992553 18 97 C12.16299559 97.66079295 12.16299559 97.66079295 9.28125 96.0234375 C3.07857502 91.06737857 2.57958591 86.09212094 1.5625 78.58203125 C1.2840625 77.30392578 1.2840625 77.30392578 1 76 C-2.06533164 74.46733418 -5.26754272 74.89723529 -8.625 74.9375 C-9.33140625 74.94201172 -10.0378125 74.94652344 -10.765625 74.95117188 C-12.51045275 74.96296125 -14.255237 74.98089676 -16 75 C-16.51949219 76.02480469 -17.03898437 77.04960937 -17.57421875 78.10546875 C-18.27814996 79.46640243 -18.98260498 80.82706527 -19.6875 82.1875 C-20.19700195 83.19780273 -20.19700195 83.19780273 -20.71679688 84.22851562 C-24.08778031 90.68694183 -28.03824424 95.30054369 -35 98 C-38.0625 98.5 -38.0625 98.5 -41 98 C-46.82195363 93.08368361 -46.82195363 93.08368361 -47.17675781 88.93139648 C-47.24021242 82.92024789 -46.50713859 77.7961029 -44.75 72.0625 C-44.37041138 70.77508911 -44.37041138 70.77508911 -43.9831543 69.46166992 C-40.70944579 58.62996885 -36.95223839 47.94329287 -33.22753906 37.26000977 C-32.72059524 35.80488784 -32.21375675 34.34972922 -31.70703125 32.89453125 C-31.46416885 32.19785339 -31.22130646 31.50117554 -30.97108459 30.78338623 C-29.64827592 26.96259498 -28.41083471 23.13211949 -27.28125 19.25 C-25.006634 11.45637363 -21.65480425 5.73230524 -15 1 C-10.57393985 -1.21303007 -4.81791237 -0.40051105 0 0 Z " fill="#1BA277" transform="translate(183,316)"/>
<path d="M0 0 C3.81642962 2.93268412 7.14116039 5.89818127 10.2109375 9.59765625 C14.67922243 13.24523578 18.71898455 12.63135814 24.2734375 12.09765625 C24.49749098 15.3090894 24.40095555 17.73210452 23.3359375 20.78515625 C20.28663817 24.20406762 16.62044502 24.97672978 12.2734375 26.09765625 C13.23209259 28.42841554 13.23209259 28.42841554 16.2734375 30.09765625 C5.21934769 36.12715978 -6.71051058 38.29904514 -19.1015625 34.84765625 C-23.31453061 33.40891387 -26.96635834 31.46821974 -30.7265625 29.09765625 C-29.0765625 32.06765625 -27.4265625 35.03765625 -25.7265625 38.09765625 C-31.54503724 37.05554137 -35.35795591 36.32534005 -39.7265625 32.09765625 C-39.96890625 32.70351562 -40.21125 33.309375 -40.4609375 33.93359375 C-42.8828125 39.98828125 -45.3046875 46.04296875 -47.7265625 52.09765625 C-48.63148438 51.95457031 -48.63148438 51.95457031 -49.5546875 51.80859375 C-50.35390625 51.69773438 -51.153125 51.586875 -51.9765625 51.47265625 C-52.76546875 51.35664063 -53.554375 51.240625 -54.3671875 51.12109375 C-57.0872404 51.09407336 -58.46142089 51.62431193 -60.7265625 53.09765625 C-61.96278074 55.57009272 -61.71064851 56.87083564 -61.4140625 59.59765625 C-61.33542969 60.39171875 -61.25679687 61.18578125 -61.17578125 62.00390625 C-60.8800383 64.30620534 -60.8800383 64.30620534 -58.7265625 66.09765625 C-57.5921875 66.18015625 -56.4578125 66.26265625 -55.2890625 66.34765625 C-53.525625 66.71890625 -53.525625 66.71890625 -51.7265625 67.09765625 C-49.9765625 69.97265625 -49.9765625 69.97265625 -48.7265625 73.09765625 C-47.74490656 74.11566982 -46.75064818 75.12233655 -45.7265625 76.09765625 C-45.7265625 76.75765625 -45.7265625 77.41765625 -45.7265625 78.09765625 C-47.76702061 78.20664214 -49.80919733 78.28368956 -51.8515625 78.34765625 C-52.98851562 78.3940625 -54.12546875 78.44046875 -55.296875 78.48828125 C-63.7165902 77.52931596 -70.55351896 69.44289762 -75.7265625 63.09765625 C-82.29092919 54.01061971 -84.09342192 45.13569081 -82.7265625 34.09765625 C-81.49444423 26.93742175 -76.82594024 22.04546013 -71.7265625 17.09765625 C-71.0665625 16.76765625 -70.4065625 16.43765625 -69.7265625 16.09765625 C-73.07029725 16.65494538 -75.75969249 17.44939514 -78.7265625 19.09765625 C-78.47362987 15.6830658 -77.46707661 14.84970306 -74.9140625 12.41015625 C-71.7265625 10.09765625 -71.7265625 10.09765625 -69.4765625 9.66015625 C-68.8990625 9.47453125 -68.3215625 9.28890625 -67.7265625 9.09765625 C-67.4584375 8.21078125 -67.1903125 7.32390625 -66.9140625 6.41015625 C-65.30212105 1.91368799 -62.46080187 -0.08668733 -58.7265625 -2.90234375 C-57.48109845 -0.41141564 -57.9498047 0.50846358 -58.7265625 3.09765625 C-58.22769531 2.7109375 -57.72882813 2.32421875 -57.21484375 1.92578125 C-40.98717488 -9.84437714 -16.69412668 -11.64762134 0 0 Z " fill="#A0852B" transform="translate(274.7265625,109.90234375)"/>
<path d="M0 0 C2.86555352 1.12885442 5.68665048 2.30654039 8.5 3.5625 C18.1317471 7.51839613 28.87905771 6.37233116 39 5 C38.62612669 9.80132045 38.24329011 14.47601677 36.9375 19.125 C35.90215042 23.40444491 35.70315181 26.62148923 36 31 C36.99 32.485 36.99 32.485 38 34 C38.76048383 39.57688141 36.82734069 42.40557138 34 47 C34 47.66 34 48.32 34 49 C35.65 49.66 37.3 50.32 39 51 C38.34 53.31 37.68 55.62 37 58 C37.78375 58.144375 38.5675 58.28875 39.375 58.4375 C42 59 42 59 44 60 C43.91297874 62.27155498 43.80480478 64.54230743 43.6875 66.8125 C43.62949219 68.07707031 43.57148438 69.34164062 43.51171875 70.64453125 C43 74 43 74 41.58203125 75.94921875 C40 77 40 77 38 77 C37.80664062 77.59167969 37.61328125 78.18335938 37.4140625 78.79296875 C36.05585281 82.9146645 34.67949415 86.9950524 33 91 C29.80393782 90.50061528 26.98714778 89.63688509 24 88.4375 C20.82668497 87.23710742 18.41926615 86.37013518 15 87 C12.97386717 88.29327628 10.97485205 89.6296945 9 91 C3.33577679 93.69724915 -2.85343181 93.68389014 -9 93 C-13.37229292 90.8919302 -16.54767241 88.21800346 -19 84 C-19.07417657 79.77193574 -18.71165948 77.79538412 -15.875 74.625 C-12.41242144 72.66789038 -9.97719277 72.0710213 -6 72 C-4.31503702 72.96885372 -2.64821244 73.96986723 -1 75 C3.65956902 75.38076718 3.65956902 75.38076718 8 74 C9.02945992 71.9832401 9.02945992 71.9832401 9.9453125 69.52734375 C10.47705078 68.17866211 10.47705078 68.17866211 11.01953125 66.80273438 C11.38433594 65.85720703 11.74914062 64.91167969 12.125 63.9375 C12.49753906 62.98810547 12.87007813 62.03871094 13.25390625 61.06054688 C14.17547165 58.7093736 15.09051802 56.35586803 16 54 C11.34947128 53.73067479 11.34947128 53.73067479 7 55 C3.76645861 56.6167707 1.57239465 56.47631929 -2 56 C-4.20005792 54.59882243 -6.15261039 53.03950904 -8.15625 51.37109375 C-9.97553528 49.79043646 -9.97553528 49.79043646 -12.625 49.625 C-16.28601055 48.66157617 -17.68835505 45.97710722 -19.86328125 43.0078125 C-21 41 -21 41 -21 38 C-22.093125 38.061875 -23.18625 38.12375 -24.3125 38.1875 C-28 38 -28 38 -29.671875 36.765625 C-32.07814325 33.56670368 -32.22635287 29.91166054 -32 26 C-30.01504928 22.82407884 -28.62712074 22.18680192 -25.0625 21.125 C-21.7828463 20.99113658 -19.90962871 21.54518564 -17 23 C-16.82984375 22.40574219 -16.6596875 21.81148437 -16.484375 21.19921875 C-14.58289682 14.69575882 -12.37613734 8.34440732 -10 2 C-9.49210937 2.34933594 -8.98421875 2.69867188 -8.4609375 3.05859375 C-4.30594344 5.80524712 -1.09115195 7.6181636 4 8 C3.34 7.05125 2.68 6.1025 2 5.125 C0 2 0 2 0 0 Z " fill="#FCD1A2" transform="translate(244,139)"/>
<path d="M0 0 C0.66 0 1.32 0 2 0 C2.4846875 1.01578125 2.969375 2.0315625 3.46875 3.078125 C9.66800739 17.91320703 9.66800739 17.91320703 20 29 C21.45719747 29.10127241 22.9158651 29.18213326 24.375 29.25 C27.83236915 29.61804252 28.82318996 29.85686806 31.625 32.125 C33.46047176 35.9628046 33.16082882 37.93709913 32 42 C30.41274097 44.90997489 29.1801575 46.56789509 26.015625 47.7265625 C24.45964136 48.17189575 22.90365143 48.61720707 21.34765625 49.0625 C18.69506622 50.12177056 17.23096419 51.39552738 15.1875 53.375 C10.6248127 57.7164661 3.48323828 62 -3 62 C-3.99 65.3 -4.98 68.6 -6 72 C-10.62 72 -15.24 72 -20 72 C-20.495 67.545 -20.495 67.545 -21 63 C-22.65 62.67 -24.3 62.34 -26 62 C-29.31288006 71.44170818 -32.1590401 81.15650011 -34 91 C-34.33 91 -34.66 91 -35 91 C-35.09087891 89.64455078 -35.09087891 89.64455078 -35.18359375 88.26171875 C-35.26738281 87.08222656 -35.35117187 85.90273437 -35.4375 84.6875 C-35.51871094 83.51574219 -35.59992188 82.34398437 -35.68359375 81.13671875 C-35.8867371 77.97409042 -35.8867371 77.97409042 -37 75 C-39.47415352 73.95358381 -41.98085074 73.21852252 -44.5546875 72.453125 C-48.02153017 70.39295651 -48.4330061 67.6563191 -50 64 C-52.08026441 62.16149605 -53.97702119 60.65970495 -56.25 59.125 C-61.89261223 55.08166439 -66.12863144 50.8281694 -70 45 C-68.50923566 41.7173068 -66.61379679 39.06922559 -64.375 36.25 C-63.74335938 35.45078125 -63.11171875 34.6515625 -62.4609375 33.828125 C-61.97882813 33.22484375 -61.49671875 32.6215625 -61 32 C-58.60546875 32.67578125 -58.60546875 32.67578125 -56 34 C-54.98828125 36.35546875 -54.98828125 36.35546875 -54.3125 39.1875 C-52.41262961 45.15403511 -49.51320323 47.5336274 -44.33984375 50.85546875 C-41.98498199 52.2196992 -41.98498199 52.2196992 -39 52 C-39.33 51.46375 -39.66 50.9275 -40 50.375 C-42.34953687 44.79484994 -40.50144302 39.93557909 -38.71484375 34.46875 C-37.85726249 31.79322204 -37.85726249 31.79322204 -37.625 28.0625 C-37 25 -37 25 -34.9375 23.5 C-33.968125 23.005 -32.99875 22.51 -32 22 C-29.93600803 20.25953058 -27.95082036 18.44976528 -25.96484375 16.62109375 C-24.05346955 15.04411504 -22.25362932 14.00886301 -20 13 C-20.99 14.65 -21.98 16.3 -23 18 C-22.67 18.33 -22.34 18.66 -22 19 C-19.23668844 17.4813503 -16.49231043 15.93120543 -13.75 14.375 C-12.97269531 13.94832031 -12.19539063 13.52164063 -11.39453125 13.08203125 C-5.43115941 9.66710891 -2.22381248 6.67143744 0 0 Z " fill="#FDD1A3" transform="translate(407,103)"/>
<path d="M0 0 C2.31 0.66 4.62 1.32 7 2 C7 4.97 7 7.94 7 11 C11.62 11 16.24 11 21 11 C21.99 7.7 22.98 4.4 24 1 C29.625 -0.125 29.625 -0.125 33 1 C32.7834375 1.71542969 32.566875 2.43085938 32.34375 3.16796875 C30.02703421 11.45880811 28.20519668 20.61559003 31 29 C32.19625 28.896875 33.3925 28.79375 34.625 28.6875 C36.8203125 28.9453125 36.8203125 28.9453125 39 30 C44.11136213 37.33555319 46.0713271 44.42919379 44.6484375 53.15625 C43.88738754 57.17249326 43.88738754 57.17249326 45.0625 60.9375 C47.65218387 62.35764922 50.08486382 62.67609598 53 63 C53.495 66.96 53.495 66.96 54 71 C44.90887754 76.80821713 32.24893433 75.16434488 21.875 75.125 C19.98044067 75.12101196 19.98044067 75.12101196 18.04760742 75.11694336 C10.79406725 75.08036778 3.55599179 74.95489999 -3.6875 74.5625 C-4.78118896 74.50376709 -4.78118896 74.50376709 -5.89697266 74.44384766 C-10.73161325 74.13419338 -10.73161325 74.13419338 -13 73 C-13.35765342 56.69586107 -10.56845258 40.62607411 -7.0625 24.75 C-6.70164307 23.11043335 -6.70164307 23.11043335 -6.33349609 21.43774414 C-4.65457735 14.12882151 -2.49270327 7.07125115 0 0 Z " fill="#1CA276" transform="translate(380,164)"/>
<path d="M0 0 C3.94908147 2.12308417 6.38051938 4.46119362 8.06225586 8.63867188 C9.10244597 12.36721587 9.3317122 15.84084265 9.37890625 19.6796875 C9.39590073 20.41011261 9.4128952 21.14053772 9.43040466 21.89309692 C9.48316574 24.22031069 9.52353114 26.54751808 9.5625 28.875 C9.62169201 31.91417002 9.68633175 34.95319292 9.75390625 37.9921875 C9.77000946 38.74251755 9.78611267 39.4928476 9.80270386 40.26591492 C9.95670292 46.69544062 10.34599155 53.09645115 10.77514648 59.51269531 C12.33924476 83.77065375 12.33924476 83.77065375 5.5625 91.9375 C0.93635153 95.66098535 -1.93018835 96.62791155 -8 96 C-12.89603993 93.45782542 -15.80623914 90.63948853 -17.54077148 85.35131836 C-18.2178916 81.88436255 -18.35683042 78.39919628 -18.53515625 74.87890625 C-18.5784053 74.07461182 -18.62165436 73.27031738 -18.66621399 72.44165039 C-18.80446438 69.81553804 -18.93485846 67.18914864 -19.0625 64.5625 C-19.106026 63.66916962 -19.149552 62.77583923 -19.19439697 61.85543823 C-19.75681221 50.09516437 -20.24374009 38.33628062 -20.375 26.5625 C-20.40086182 25.41144775 -20.42672363 24.26039551 -20.45336914 23.07446289 C-20.47196827 15.06783878 -19.19884024 7.83910058 -13.375 1.9375 C-8.79630436 -0.69101046 -5.15722819 -1.14876647 0 0 Z " fill="#1BA277" transform="translate(265,317)"/>
<path d="M0 0 C4.29 0 8.58 0 13 0 C13 2.31 13 4.62 13 7 C15.97 7 18.94 7 22 7 C22 4.69 22 2.38 22 0 C25.96 0 29.92 0 34 0 C34 2.31 34 4.62 34 7 C36.97 7 39.94 7 43 7 C43 18.88 43 30.76 43 43 C25.84 43 8.68 43 -9 43 C-9 31.12 -9 19.24 -9 7 C-6.03 7 -3.06 7 0 7 C0 4.69 0 2.38 0 0 Z " fill="#2EBF3F" transform="translate(301,183)"/>
<path d="M0 0 C10.89 0 21.78 0 33 0 C33 2.31 33 4.62 33 7 C35.97 7 38.94 7 42 7 C42 18.55 42 30.1 42 42 C25.17 42 8.34 42 -9 42 C-9 30.45 -9 18.9 -9 7 C-6.03 7 -3.06 7 0 7 C0 4.69 0 2.38 0 0 Z " fill="#7A7AFC" transform="translate(313,226)"/>
<path d="M0 0 C3.46326524 0.49914022 5.90347959 2.06381599 8.8125 3.9375 C11.8677838 5.8312336 14.57298226 7.36320107 18.0625 8.25 C19.031875 8.4975 20.00125 8.745 21 9 C22.17673198 11.35346396 22.16623866 12.8806033 22.1875 15.5 C22.20167969 16.2940625 22.21585937 17.088125 22.23046875 17.90625 C22 20 22 20 20 22 C18.68 19.03 17.36 16.06 16 13 C17.83894108 16.67788216 18.21532043 19.74630235 18.3125 23.8125 C18.36857422 25.33810547 18.36857422 25.33810547 18.42578125 26.89453125 C17.83151939 31.2288265 17.14913255 32.86932947 14 36 C9.40962152 36.75256111 4.89443929 36.41170526 0.265625 36.1484375 C-1.09618564 36.09234788 -2.45811042 36.03896939 -3.82012939 35.9881897 C-7.39899914 35.84747666 -10.97513274 35.67003401 -14.55194092 35.48486328 C-18.20426048 35.30231322 -21.85797006 35.15458197 -25.51171875 35.00390625 C-32.67629253 34.70331236 -39.83833275 34.36389848 -47 34 C-44.72124061 24.46339496 -40.35169139 17.50582395 -32 12 C-23.02857086 7.02434088 -14.0714049 3.92281193 -4.0703125 1.7265625 C-1.14246559 1.31755533 -1.14246559 1.31755533 0 0 Z " fill="#FD6A6B" transform="translate(267,232)"/>
<path d="M0 0 C7.8606325 6.98722889 11.25599198 16.56370569 12.17285156 26.95996094 C13.19382276 45.08863432 9.51472976 62.82187811 -1.69921875 77.45703125 C-5.615699 81.78577257 -10.0466939 84.95346586 -15 88 C-15.69480469 88.45503906 -16.38960938 88.91007812 -17.10546875 89.37890625 C-25.73747819 94.17075675 -37.87586431 92.92934822 -47.25 90.9375 C-59.94623003 87.19819937 -72.51522913 79.69846102 -79.125 67.9375 C-79.77066352 66.63504084 -80.40436017 65.32608237 -81 64 C-78.05836204 65.3881887 -75.47104274 67.0057878 -72.8125 68.875 C-60.49833631 77.15173297 -47.60874625 79.40943042 -33 78 C-29.56009981 77.1706542 -26.95586419 75.91506694 -24 74 C-23.24589844 73.56429687 -22.49179687 73.12859375 -21.71484375 72.6796875 C-10.01814465 65.53278955 -3.37211527 54.15890155 0.13671875 41.09375 C1.85543754 33.63331764 2.18127603 26.130589 2.1875 18.5 C2.19974609 17.70980469 2.21199219 16.91960937 2.22460938 16.10546875 C2.23837189 10.4995381 1.42776144 5.41659525 0 0 Z " fill="#BDDFDC" transform="translate(514,338)"/>
<path d="M0 0 C5.23460056 4.65297828 8.52974963 9.10024692 9.38671875 16.20703125 C9.79800288 29.07029708 5.92899873 41.35420829 -2.8125 51 C-11.68726484 59.30219937 -22.64014703 63.54367684 -34.74609375 63.31640625 C-49.74138599 61.85828059 -62.43769724 54.08077707 -71.96484375 42.640625 C-73.36021419 40.78888634 -74.70921876 38.9256777 -76 37 C-75.67 36.34 -75.34 35.68 -75 35 C-74.45472656 35.45890625 -73.90945313 35.9178125 -73.34765625 36.390625 C-62.94791432 44.85263724 -50.70124647 49.80217847 -37.1171875 49.4140625 C-25.62440995 47.88745295 -15.57914631 41.90971231 -8.3125 32.984375 C-5.85171057 29.26389574 -4.42211053 25.20450071 -3 21 C-2.608125 19.9275 -2.21625 18.855 -1.8125 17.75 C-0.54397238 11.89525713 -0.31477618 5.97246391 0 0 Z " fill="#BDDFDC" transform="translate(398,367)"/>
<path d="M0 0 C3.96 0 7.92 0 12 0 C12 2.31 12 4.62 12 7 C15.3 7 18.6 7 22 7 C22 18.55 22 30.1 22 42 C19.03 42 16.06 42 13 42 C13 44.31 13 46.62 13 49 C10.03 49 7.06 49 4 49 C4 46.69 4 44.38 4 42 C-0.29 42 -4.58 42 -9 42 C-9 30.12 -9 18.24 -9 6 C-6.03 6 -3.06 6 0 6 C0 4.02 0 2.04 0 0 Z " fill="#FE6A6A" transform="translate(310,141)"/>
<path d="M0 0 C0.33 0 0.66 0 1 0 C1 1.98 1 3.96 1 6 C3.97 6 6.94 6 10 6 C10 16.89 10 27.78 10 39 C19.24 39 28.48 39 38 39 C38.33 37.68 38.66 36.36 39 35 C41.42897365 32.39501376 42.80332385 32.01907713 46.3828125 31.671875 C47.61773437 31.69765625 48.85265625 31.7234375 50.125 31.75 C51.36507812 31.76546875 52.60515625 31.7809375 53.8828125 31.796875 C57 32 57 32 59 33 C59 34.98 59 36.96 59 39 C59.99 39 60.98 39 62 39 C62.185625 38.071875 62.185625 38.071875 62.375 37.125 C63 35 63 35 65 33 C68.50157239 31.73398527 71.99765115 31.86673606 75.6875 31.875 C76.84636719 31.87242187 78.00523437 31.86984375 79.19921875 31.8671875 C82 32 82 32 83 33 C83.37086093 38.8410596 83.37086093 38.8410596 83 41 C77.97456711 44.35028859 73.04021106 44.14501869 67.15054321 44.12698364 C66.36620639 44.12854363 65.58186957 44.13010362 64.77376497 44.13171089 C62.14814836 44.13569596 59.52258969 44.13254065 56.89697266 44.12939453 C55.01239488 44.13074987 53.12781737 44.13253056 51.24324036 44.13470459 C46.12024809 44.1392687 40.99727594 44.13749205 35.87428331 44.1343255 C30.49450661 44.13178997 25.11473161 44.13414339 19.73495483 44.13571167 C10.68104749 44.13753269 1.62714829 44.13513175 -7.42675781 44.13037109 C-17.84023778 44.12495817 -28.25369808 44.12666964 -38.66717756 44.1321975 C-47.63741674 44.13676606 -56.60765007 44.13736013 -65.57789004 44.13475883 C-70.92120664 44.13321269 -76.26451407 44.13295543 -81.60783005 44.13629532 C-119.88428594 44.15667778 -119.88428594 44.15667778 -134.04541016 43.61669922 C-134.93841009 43.58635653 -135.83141003 43.55601383 -136.75147057 43.52475166 C-140.69492358 43.33513246 -143.55655451 42.90708236 -147 41 C-134.2135756 39.20306928 -121.68882018 38.88497578 -108.8125 39.3125 C-107.69142349 39.3492836 -107.69142349 39.3492836 -106.54769897 39.3868103 C-98.7193309 39.65220909 -90.89652874 39.99731466 -83.07421875 40.40234375 C-81.87240967 40.46059326 -80.67060059 40.51884277 -79.43237305 40.57885742 C-77.19736104 40.69029802 -74.96300131 40.81603657 -72.72973633 40.95825195 C-71.74642334 41.00812256 -70.76311035 41.05799316 -69.75 41.109375 C-68.89921875 41.16061523 -68.0484375 41.21185547 -67.171875 41.26464844 C-64.43520812 40.93117869 -63.89807328 39.90179317 -62 38 C-59.82348633 37.7512207 -59.82348633 37.7512207 -57.33203125 37.92578125 C-56.43935547 37.98056641 -55.54667969 38.03535156 -54.62695312 38.09179688 C-53.23379883 38.20104492 -53.23379883 38.20104492 -51.8125 38.3125 C-50.87212891 38.37373047 -49.93175781 38.43496094 -48.96289062 38.49804688 C-46.64059043 38.65129511 -44.32028542 38.8191286 -42 39 C-42 39.99 -42 40.98 -42 42 C-25.17 42 -8.34 42 9 42 C9 30.45 9 18.9 9 7 C6.03 7 3.06 7 0 7 C0 4.69 0 2.38 0 0 Z " fill="#B5DFDB" transform="translate(346,226)"/>
<path d="M0 0 C4.51714238 3.44432691 7.41809079 6.46891294 9 12 C9.59865075 17.43755603 9.6504364 22.84683457 9.6875 28.3125 C9.71196148 29.85290022 9.73858475 31.39326759 9.76733398 32.93359375 C9.80982825 35.21576737 9.85123774 37.49786786 9.88545227 39.78018188 C9.97081477 45.36432803 10.20947244 50.92616793 10.5625 56.5 C12.28972533 87.31824168 12.28972533 87.31824168 4.625 97 C-0.67081658 101.03490787 -4.82056672 102.64043971 -11.46875 102.41015625 C-16.50074599 101.59478653 -20.26024086 99.19027528 -23.41796875 95.21484375 C-24.5625 93.375 -24.5625 93.375 -26 90 C-25.67 89.01 -25.34 88.02 -25 87 C-24.34 87.33 -23.68 87.66 -23 88 C-16.22281106 88.76841733 -10.55690432 88.14195183 -5 84 C0.73688338 77.35729293 1.31501294 69.53204235 1.15625 61.140625 C1.14815308 60.28776917 1.14005615 59.43491333 1.13171387 58.55621338 C1.10025626 55.70382379 1.05152835 52.85209443 1 50 C0.98356445 48.97511475 0.96712891 47.95022949 0.95019531 46.89428711 C0.82544116 39.17894867 0.6661079 31.46454143 0.5 23.75 C0.45163334 21.43229562 0.40345519 19.11458729 0.35546875 16.796875 C0.23914436 11.19786953 0.12052349 5.59891658 0 0 Z " fill="#BDDFDC" transform="translate(278,328)"/>
<path d="M0 0 C1.31611677 0.95336021 2.62778961 1.91285774 3.9375 2.875 C4.66839844 3.40867187 5.39929688 3.94234375 6.15234375 4.4921875 C8 6 8 6 9 8 C8.0625 10.625 8.0625 10.625 7 13 C9.475 14.98 9.475 14.98 12 17 C10.71413021 19.74729006 9.30656157 22.04227691 7.390625 24.390625 C6.88563477 25.01445068 6.38064453 25.63827637 5.86035156 26.28100586 C5.32893555 26.93077393 4.79751953 27.58054199 4.25 28.25 C3.16575404 29.58910533 2.08241183 30.92894294 1 32.26953125 C0.48179687 32.91100098 -0.03640625 33.5524707 -0.5703125 34.21337891 C-3.13177898 37.41433719 -5.5730068 40.69659258 -8 44 C-15.45297102 38.48480145 -22.72303947 32.743893 -30 27 C-29.39859313 23.74611954 -28.33942821 21.85506387 -26.234375 19.3203125 C-25.67363281 18.63839844 -25.11289062 17.95648438 -24.53515625 17.25390625 C-23.94605469 16.55136719 -23.35695313 15.84882812 -22.75 15.125 C-22.17636719 14.43019531 -21.60273438 13.73539063 -21.01171875 13.01953125 C-19.34802247 11.0071788 -17.67541642 9.0025987 -16 7 C-15.02584637 5.83089187 -14.05186661 4.66163882 -13.078125 3.4921875 C-12.39234375 2.66976562 -11.7065625 1.84734375 -11 1 C-8.07120629 1.62759865 -5.63904371 2.58622659 -3 4 C-2.01 2.68 -1.02 1.36 0 0 Z " fill="#4EC7ED" transform="translate(343,106)"/>
<path d="M0 0 C4.65370934 1.55927394 8.57265965 3.57367349 11 8 C13.20479627 14.61438881 13.59457931 24.28624037 10.80078125 30.79296875 C9.31277129 32.7907252 7.89690773 34.39023886 6 36 C5.38511719 36.54914063 4.77023437 37.09828125 4.13671875 37.6640625 C0.1057446 40.1843425 -4.43074554 39.70034704 -9 39 C-13.92940413 35.74869089 -16.36346383 30.56768655 -18 25 C-19.53408418 16.25440897 -16.81595386 9.30009552 -12 2 C-7.92663606 -0.71557596 -4.78288855 -0.63359751 0 0 Z " fill="#ECFCFA" transform="translate(473,345)"/>
<path d="M0 0 C13.02257474 11.16220692 14.75795182 32.45296227 18.25463867 48.2890625 C19.29571262 52.9995776 20.44862473 57.62050788 21.8125 62.25 C23.07650616 67.24790943 23.34745569 72.11799507 23.4375 77.25 C23.45981689 77.99540039 23.48213379 78.74080078 23.50512695 79.50878906 C23.48236275 85.03864516 22.15873714 89.41896592 19 94 C13.7176812 98.20429455 9.27458639 99.47230603 2.64453125 99.4140625 C-1.89517752 98.70326615 -4.89581351 96.2822321 -8 93 C-9.5625 90.3125 -9.5625 90.3125 -10 88 C-9.67 87.01 -9.34 86.02 -9 85 C-8.35933594 85.03480469 -7.71867188 85.06960938 -7.05859375 85.10546875 C-1.17368751 85.28964614 2.87021472 84.97527546 8 82 C12.63287257 77.24191466 14.28824566 72.6233943 14.3203125 66.04296875 C14.20062664 58.82428841 12.71545643 52.26464489 10.875 45.3125 C10.23301705 42.77898955 9.59242341 40.24512669 8.953125 37.7109375 C8.46489258 35.80006348 8.46489258 35.80006348 7.96679688 33.85058594 C6.43085665 27.73319978 5.02617518 21.58690865 3.625 15.4375 C3.13833591 13.31112578 2.65138215 11.18481782 2.1640625 9.05859375 C1.96248535 8.17486084 1.7609082 7.29112793 1.55322266 6.38061523 C1.05753374 4.24757788 0.53856537 2.12256306 0 0 Z " fill="#BDE0DD" transform="translate(201,331)"/>
<path d="M0 0 C0.99 0 1.98 0 3 0 C3.495 1.98 3.495 1.98 4 4 C4.66 4 5.32 4 6 4 C6 13.90726817 6 13.90726817 3.44140625 16.703125 C2.82136719 17.21359375 2.20132813 17.7240625 1.5625 18.25 C0.63630859 19.03117187 0.63630859 19.03117187 -0.30859375 19.828125 C-2 21 -2 21 -4 21 C-4 21.66 -4 22.32 -4 23 C-5.93625098 23.98163422 -7.87404539 24.96022454 -9.8125 25.9375 C-10.89144531 26.48277344 -11.97039062 27.02804688 -13.08203125 27.58984375 C-19.0252594 30.46200622 -24.4834444 30.62144636 -31 30 C-35.37229292 27.8919302 -38.54767241 25.21800346 -41 21 C-41.07417657 16.77193574 -40.71165948 14.79538412 -37.875 11.625 C-34.41242144 9.66789038 -31.97719277 9.0710213 -28 9 C-26.31503702 9.96885372 -24.64821244 10.96986723 -23 12 C-18.62049386 12.39102733 -14.70020687 12.53728471 -11 10 C-9.95211237 7.32570343 -9.50655994 4.85515602 -9 2 C-8.01 2.33 -7.02 2.66 -6 3 C-6 3.66 -6 4.32 -6 5 C-2.90675971 4.29183001 -2.90675971 4.29183001 -1.5 1.9375 C-1.005 1.298125 -0.51 0.65875 0 0 Z " fill="#FCD2A3" transform="translate(266,202)"/>
<path d="M0 0 C1.46067199 0.45082469 2.91848032 0.91093537 4.375 1.375 C5.18710937 1.63023437 5.99921875 1.88546875 6.8359375 2.1484375 C9 3 9 3 11 5 C10.34 6.98 9.68 8.96 9 11 C9.78375 11.144375 10.5675 11.28875 11.375 11.4375 C14 12 14 12 16 13 C15.91297874 15.27155498 15.80480478 17.54230743 15.6875 19.8125 C15.60048828 21.70935547 15.60048828 21.70935547 15.51171875 23.64453125 C15 27 15 27 13.58203125 28.94921875 C12 30 12 30 10 30 C9.80664062 30.59167969 9.61328125 31.18335938 9.4140625 31.79296875 C8.05585281 35.9146645 6.67949415 39.9950524 5 44 C1.33827525 43.37321829 -1.8818995 42.35548154 -5.3125 40.9375 C-6.19550781 40.57527344 -7.07851563 40.21304688 -7.98828125 39.83984375 C-8.65214844 39.56269531 -9.31601562 39.28554687 -10 39 C-10 38.34 -10 37.68 -10 37 C-7.76948111 35.12996901 -5.42301608 33.46143418 -3.06640625 31.75390625 C-0.74102935 30.08749655 -0.74102935 30.08749655 0 27 C-0.66 26.67 -1.32 26.34 -2 26 C-1.34 24.02 -0.68 22.04 0 20 C-0.99 20.33 -1.98 20.66 -3 21 C-3 19.35 -3 17.7 -3 16 C-6.16115776 17.36983503 -6.9927092 17.9890638 -9 21 C-12 21 -12 21 -13.6875 19.5 C-14.120625 19.005 -14.55375 18.51 -15 18 C-15.144375 18.94875 -15.28875 19.8975 -15.4375 20.875 C-16 24 -16 24 -17 26 C-17.66 26 -18.32 26 -19 26 C-17.27033277 20.62892808 -15.43451935 15.30093368 -13.5 10 C-13.0978125 8.88625 -12.695625 7.7725 -12.28125 6.625 C-11.8584375 5.75875 -11.435625 4.8925 -11 4 C-7.23375329 2.74458443 -5.62811066 3.62938042 -2 5 C-1.34 3.35 -0.68 1.7 0 0 Z " fill="#F1A745" transform="translate(272,186)"/>
<path d="M0 0 C3.63 0 7.26 0 11 0 C12.76615118 4.70973649 13.48594831 9.03083364 14 14 C12.02 14 10.04 14 8 14 C7.85304687 14.54527344 7.70609375 15.09054687 7.5546875 15.65234375 C5.41206251 22.85599673 2.21153353 30.0564056 -4.125 34.5 C-9.13373521 37.11325315 -14.40367768 38.00809173 -20 37 C-24.10774838 34.62060613 -27.35458729 31.51411655 -29 27 C-28.625 24.75 -28.625 24.75 -28 23 C-27.1646875 23.06960938 -27.1646875 23.06960938 -26.3125 23.140625 C-20.35294346 23.42249592 -15.77752068 22.75521223 -11 19 C-6.19184292 13.43206339 -3.1538601 6.58600198 0 0 Z " fill="#BDDFDD" transform="translate(169,394)"/>
<path d="M0 0 C15.18 0 30.36 0 46 0 C48.37571932 5.93929831 48.1525646 9.66856915 48 16 C42.39 16 36.78 16 31 16 C27 5.375 27 5.375 27 2 C26.34 2 25.68 2 25 2 C25.2475 2.9590625 25.2475 2.9590625 25.5 3.9375 C26.16396439 8.00428188 26.06149555 11.87979829 26 16 C20.39 16 14.78 16 9 16 C5 4.375 5 4.375 5 1 C3.35 1 1.7 1 0 1 C0 0.67 0 0.34 0 0 Z " fill="#FCD3A5" transform="translate(378,238)"/>
<path d="M0 0 C0.42317708 2.01822917 0.84635417 4.03645833 1.26953125 6.0546875 C1.92308838 8.37046549 1.92308838 8.37046549 5 10 C8.07032957 17.05038642 9.15136601 25.40324193 8 33 C6.55999785 35.64075629 5.72942511 36.74208173 2.87890625 37.75 C2.11449219 37.8325 1.35007812 37.915 0.5625 38 C-0.19933594 38.103125 -0.96117187 38.20625 -1.74609375 38.3125 C-4 38 -4 38 -6.3203125 36.4765625 C-8.65701439 33.03128576 -8.0073953 30.28885993 -7.4375 26.375 C-6.71983962 19.82922485 -7.21417712 15.71523348 -10.87109375 10.015625 C-12 8 -12 8 -12 4 C-7.99873708 0.57034607 -5.24242317 -0.4992784 0 0 Z " fill="#FCD2A3" transform="translate(431,189)"/>
<path d="M0 0 C2.40234375 0.68359375 2.40234375 0.68359375 5 2 C5.94140625 4.28515625 5.94140625 4.28515625 6.5625 7.0625 C8.64760299 13.72957301 12.84084488 16.45637197 18.41796875 20.125 C21 22 21 22 22 25 C21.3984375 27.0078125 21.3984375 27.0078125 20.375 29.125 C20.05273438 29.82882813 19.73046875 30.53265625 19.3984375 31.2578125 C18 33 18 33 15.84765625 34.11328125 C11.19108258 33.92804032 8.50601709 31.00084002 5.0625 28.0625 C4.37220703 27.50498047 3.68191406 26.94746094 2.97070312 26.37304688 C-1.79981528 22.40741214 -5.49741765 18.11136039 -9 13 C-7.43351939 9.74700194 -5.62461834 7.08285272 -3.375 4.25 C-2.74335938 3.45078125 -2.11171875 2.6515625 -1.4609375 1.828125 C-0.97882813 1.22484375 -0.49671875 0.6215625 0 0 Z " fill="#FDD3A5" transform="translate(346,135)"/>
<path d="M0 0 C1.23105469 0.02449219 2.46210938 0.04898437 3.73046875 0.07421875 C6.8125 0.3125 6.8125 0.3125 8.8125 1.3125 C8.8125 3.2925 8.8125 5.2725 8.8125 7.3125 C9.8025 7.3125 10.7925 7.3125 11.8125 7.3125 C11.93625 6.69375 12.06 6.075 12.1875 5.4375 C12.8125 3.3125 12.8125 3.3125 14.8125 1.3125 C18.31407239 0.04648527 21.81015115 0.17923606 25.5 0.1875 C26.65886719 0.18492187 27.81773437 0.18234375 29.01171875 0.1796875 C31.8125 0.3125 31.8125 0.3125 32.8125 1.3125 C33.18336093 7.1535596 33.18336093 7.1535596 32.8125 9.3125 C27.80815092 12.64873272 22.86263702 12.47124806 16.9921875 12.48046875 C15.88147385 12.48546135 15.88147385 12.48546135 14.74832153 12.49055481 C13.1901308 12.4955982 11.63192935 12.49796394 10.07373047 12.49780273 C7.68829772 12.49999927 5.30332042 12.51820918 2.91796875 12.53710938 C1.40104324 12.54004182 -0.11588445 12.54202761 -1.6328125 12.54296875 C-2.34535187 12.55015427 -3.05789124 12.55733978 -3.79202271 12.56474304 C-7.48498997 12.54764053 -9.02873999 12.41834001 -12.1875 10.3125 C-12.6875 7.4375 -12.6875 7.4375 -12.1875 4.3125 C-8.30750269 0.25779361 -5.5029633 -0.16816221 0 0 Z " fill="#C5A0A0" transform="translate(396.1875,257.6875)"/>
<path d="M0 0 C3.00524147 0.25043679 4.59248167 0.6287439 6.84375 2.6796875 C17 16.14150943 17 16.14150943 17 23 C16.113125 23.268125 15.22625 23.53625 14.3125 23.8125 C11.0239353 24.84807365 11.0239353 24.84807365 8.5 26.625 C5.36379178 28.34991452 3.53029355 28.5257884 0 28 C-2.83315139 25.83920882 -3.88519257 24.66714867 -4.49609375 21.1171875 C-4.19018405 4.19018405 -4.19018405 4.19018405 0 0 Z " fill="#DBC05F" transform="translate(413,166)"/>
<path d="M0 0 C3.40661846 0.52153442 4.71372932 1.06284993 7.625 3.125 C9.96785287 6.492851 10.38630833 8.94224163 10.625 13 C9.3875 13.144375 8.15 13.28875 6.875 13.4375 C4.10362918 14.12421135 2.94500345 14.5637136 1.23828125 16.890625 C-0.87234614 21.5041897 -1.94624262 25.96210075 -2.375 31 C-6.87581743 28.9996367 -8.69785027 26.52608388 -10.64453125 22.171875 C-12.82432699 15.69077109 -11.28972886 10.92652032 -8.54296875 4.98046875 C-6.21283455 1.02937164 -4.70754597 -0.51413471 0 0 Z " fill="#BDDFDC" transform="translate(470.375,349)"/>
<path d="M0 0 C6.6 0.33 13.2 0.66 20 1 C20.96105033 8.68840263 20.96105033 8.68840263 20 13 C16.84528071 16.57107818 13.36250006 19.08074369 9 21 C5.46692856 20.71197787 2.87071669 18.97392256 0.19921875 16.65234375 C-2.13634793 13.43428282 -1.48916536 9.77090762 -1 6 C-0.67 4.02 -0.34 2.04 0 0 Z " fill="#FAB55F" transform="translate(382,190)"/>
<path d="M0 0 C3.76119476 0.62393651 6.18960042 2.34773715 9.25 4.5625 C10.14203125 5.20316406 11.0340625 5.84382812 11.953125 6.50390625 C12.96632813 7.24447266 12.96632813 7.24447266 14 8 C13.61908203 9.61455078 13.61908203 9.61455078 13.23046875 11.26171875 C11.13071553 20.16929757 9.0476583 29.08027633 7 38 C6.67 38 6.34 38 6 38 C5.93941406 37.09636719 5.87882812 36.19273437 5.81640625 35.26171875 C5.73261719 34.08222656 5.64882813 32.90273437 5.5625 31.6875 C5.48128906 30.51574219 5.40007812 29.34398437 5.31640625 28.13671875 C5.1132629 24.97409042 5.1132629 24.97409042 4 22 C1.4650599 20.88216183 -1.10889682 20.09066038 -3.75 19.2578125 C-6 18 -6 18 -6.8125 15.3671875 C-6.874375 14.58601562 -6.93625 13.80484375 -7 13 C-5.35 12.67 -3.7 12.34 -2 12 C-0.24502532 7.06913237 -0.24502532 7.06913237 1 2 C0.67 1.34 0.34 0.68 0 0 Z " fill="#DCC162" transform="translate(366,156)"/>
<path d="M0 0 C2.75150737 0.08711104 5.49981633 0.19399615 8.25 0.3125 C9.02730469 0.33505859 9.80460937 0.35761719 10.60546875 0.38085938 C17.98422048 0.72772377 17.98422048 0.72772377 21 4 C22.77784465 9.33353395 23.00654031 15.70752176 21.3515625 21.12109375 C20.4375 22.75 20.4375 22.75 18 25 C14.375 25.5625 14.375 25.5625 11 25 C8.01700273 20.5255041 8.50782961 16.24981746 9 11 C9.77216075 8.14345155 10.77366306 5.70816074 12 3 C10.14375 2.814375 10.14375 2.814375 8.25 2.625 C5.07606638 2.30760664 2.79374023 1.5478831 0 0 Z " fill="#CA9E9E" transform="translate(263,243)"/>
<path d="M0 0 C0.33 0 0.66 0 1 0 C1 1.98 1 3.96 1 6 C3.97 6 6.94 6 10 6 C10 16.89 10 27.78 10 39 C19.24 39 28.48 39 38 39 C38.33 39.99 38.66 40.98 39 42 C39.66 42.66 40.32 43.32 41 44 C13.32428396 44.20636934 -14.33213177 43.61039278 -42 43 C-42 42.67 -42 42.34 -42 42 C-25.17 42 -8.34 42 9 42 C9 30.45 9 18.9 9 7 C6.03 7 3.06 7 0 7 C0 4.69 0 2.38 0 0 Z " fill="#B3D5E4" transform="translate(346,226)"/>
<path d="M0 0 C4.75345908 4.49651534 8.11926117 7.78407585 8.375 14.5 C8.25789026 18.39715187 7.43087174 20.860124 5 24 C1.21283842 22.49637741 -2.55245187 20.94512999 -6.3125 19.375 C-7.38113281 18.92898438 -8.44976562 18.48296875 -9.55078125 18.0234375 C-10.76314453 17.51683594 -10.76314453 17.51683594 -12 17 C-11.23042969 16.39800781 -10.46085937 15.79601562 -9.66796875 15.17578125 C-4.22311216 10.73539308 -1.48269747 6.73953396 0 0 Z " fill="#BDE0DD" transform="translate(387,330)"/>
<path d="M0 0 C1.15886719 -0.00257813 2.31773437 -0.00515625 3.51171875 -0.0078125 C6.3125 0.125 6.3125 0.125 7.3125 1.125 C7.68336093 6.9660596 7.68336093 6.9660596 7.3125 9.125 C3.55490815 11.63006123 0.59222423 11.3854463 -3.75 11.3125 C-4.48283203 11.31185547 -5.21566406 11.31121094 -5.97070312 11.31054688 C-11.40625 11.265625 -11.40625 11.265625 -13.6875 10.125 C-14.05224164 4.65387538 -14.05224164 4.65387538 -12.4375 2.3125 C-8.61526861 -0.28115701 -4.49806514 -0.01007405 0 0 Z " fill="#C69E9E" transform="translate(421.6875,257.875)"/>
<path d="M0 0 C0 0.33 0 0.66 0 1 C-0.56847656 1.09796875 -1.13695312 1.1959375 -1.72265625 1.296875 C-7.23241294 2.36387296 -11.45876511 3.63948618 -16 7 C-19.01046888 12.11779709 -19.61773311 17.186907 -20 23 C-23.47745244 17.78382134 -23.84653834 12.15580597 -23 6 C-18.0144421 -5.40353356 -10.45453044 -3.33655227 0 0 Z " fill="#C0E1DE" transform="translate(363,346)"/>
<path d="M0 0 C-0.99 3.3 -1.98 6.6 -3 10 C-7.62 10 -12.24 10 -17 10 C-17 7.03 -17 4.06 -17 1 C-14.72926348 0.83201949 -12.45840707 0.66565887 -10.1875 0.5 C-8.29064453 0.36078125 -8.29064453 0.36078125 -6.35546875 0.21875 C-4.24021483 0.08085219 -2.11974408 0 0 0 Z " fill="#DEC060" transform="translate(404,165)"/>
<path d="M0 0 C0.82757813 0.48082031 1.65515625 0.96164063 2.5078125 1.45703125 C6.36467547 3.16112619 9.73033687 3.54693487 13.875 3.6875 C14.56335938 3.72166016 15.25171875 3.75582031 15.9609375 3.79101562 C17.64008613 3.87264091 19.32001168 3.9380157 21 4 C19.19587357 7.26460973 18.16605307 8.88929795 15 11 C8.09741551 11.66799205 8.09741551 11.66799205 4.125 9.25 C1.17708759 6.12868098 0 4.31644262 0 0 Z " fill="#786F60" transform="translate(246,174)"/>
<path d="M0 0 C0.36717663 7.4659249 0.36717663 7.4659249 -1.375 10 C-3 11 -3 11 -5 11 C-5.33 11.66 -5.66 12.32 -6 13 C-6.99 12.34 -7.98 11.68 -9 11 C-9 9 -9 7 -9 5 C-8.34 4.67 -7.68 4.34 -7 4 C-7.33 3.01 -7.66 2.02 -8 1 C-2.25 0 -2.25 0 0 0 Z " fill="#FDD09E" transform="translate(287,205)"/>
<path d="M0 0 C2.97 0 5.94 0 9 0 C9 2.31 9 4.62 9 7 C6.03 7 3.06 7 0 7 C0 4.69 0 2.38 0 0 Z " fill="#E3EFFD" transform="translate(325,226)"/>
<path d="M0 0 C2.97 0 5.94 0 9 0 C9 2.31 9 4.62 9 7 C6.03 7 3.06 7 0 7 C0 4.69 0 2.38 0 0 Z " fill="#E8F7F0" transform="translate(314,183)"/>
<path d="M0 0 C2.375 -0.1875 2.375 -0.1875 5 0 C7.08940868 3.13411302 7.27364412 3.97450472 7.25 7.5625 C7.25515625 8.34753906 7.2603125 9.13257813 7.265625 9.94140625 C7 12 7 12 5 14 C4.73445313 13.36191406 4.46890625 12.72382813 4.1953125 12.06640625 C3.84210938 11.24011719 3.48890625 10.41382813 3.125 9.5625 C2.77695312 8.73878906 2.42890625 7.91507813 2.0703125 7.06640625 C1.1755063 4.84253285 1.1755063 4.84253285 -1 4 C-0.67 2.68 -0.34 1.36 0 0 Z " fill="#C8A0A0" transform="translate(282,240)"/>
<path d="M0 0 C7.06252796 -0.68769592 12.52185154 -1.09511621 18.3125 3.4375 C20.48828125 5.37109375 20.48828125 5.37109375 22 7 C22 7.33 22 7.66 22 8 C18.7 8 15.4 8 12 8 C12 5.69 12 3.38 12 1 C8.04 1 4.08 1 0 1 C0 0.67 0 0.34 0 0 Z " fill="#F4AFB0" transform="translate(310,140)"/>
<path d="M0 0 C0.83789062 0.48082031 1.67578125 0.96164063 2.5390625 1.45703125 C6.34741638 3.15488654 9.22826558 3.49189932 13.375 3.6875 C15.24285156 3.78611328 15.24285156 3.78611328 17.1484375 3.88671875 C18.08945312 3.92410156 19.03046875 3.96148437 20 4 C18.37721241 5.94734511 17.47755414 6.90721805 14.94921875 7.3984375 C9.92456181 7.34636852 6.28140105 6.92388365 2 4 C0.625 1.8125 0.625 1.8125 0 0 Z " fill="#817765" transform="translate(379,151)"/>
<path d="M0 0 C0.66 0 1.32 0 2 0 C2.05410687 1.77049689 2.09284119 3.54146849 2.125 5.3125 C2.14820313 6.29863281 2.17140625 7.28476562 2.1953125 8.30078125 C2 11 2 11 0 14 C-0.66 14 -1.32 14 -2 14 C-2.05410687 12.22950311 -2.09284119 10.45853151 -2.125 8.6875 C-2.14820313 7.70136719 -2.17140625 6.71523438 -2.1953125 5.69921875 C-2 3 -2 3 0 0 Z " fill="#E4F9F5" transform="translate(175,353)"/>
<path d="M0 0 C0.99 0 1.98 0 3 0 C3 0.99 3 1.98 3 3 C7.29 3.33 11.58 3.66 16 4 C16 4.33 16 4.66 16 5 C8.08 5 0.16 5 -8 5 C-8 4.67 -8 4.34 -8 4 C-6.865625 3.71125 -5.73125 3.4225 -4.5625 3.125 C-3.386875 2.75375 -2.21125 2.3825 -1 2 C-0.67 1.34 -0.34 0.68 0 0 Z " fill="#CAD9D7" transform="translate(405,265)"/>
<path d="M0 0 C5.28 0.66 10.56 1.32 16 2 C11.57213577 5.32089817 10.33493118 5.74876227 5 5 C3.35 3.35 1.7 1.7 0 0 Z " fill="#E8F7F4" transform="translate(237,190)"/>
<path d="M0 0 C1.32 0.33 2.64 0.66 4 1 C3.67 3.31 3.34 5.62 3 8 C1.68 8 0.36 8 -1 8 C-1.625 5.6875 -1.625 5.6875 -2 3 C-1.34 2.01 -0.68 1.02 0 0 Z " fill="#797061" transform="translate(248,162)"/>
<path d="M0 0 C1.32 0.66 2.64 1.32 4 2 C3.67 3.65 3.34 5.3 3 7 C1.35 7.33 -0.3 7.66 -2 8 C-2.125 5.125 -2.125 5.125 -2 2 C-1.34 1.34 -0.68 0.68 0 0 Z " fill="#756E5F" transform="translate(404,139)"/>
<path d="M0 0 C6.75 0.75 6.75 0.75 9 3 C9 4.32 9 5.64 9 7 C8.46375 6.71125 7.9275 6.4225 7.375 6.125 C4.64719516 4.83288192 1.87387282 3.91441408 -1 3 C-0.67 2.01 -0.34 1.02 0 0 Z " fill="#817765" transform="translate(268,154)"/>
<path d="M0 0 C0.70189453 0.06123047 1.40378906 0.12246094 2.12695312 0.18554688 C3.8567967 0.33852624 5.58488497 0.51112602 7.3125 0.6875 C7.3125 1.0175 7.3125 1.3475 7.3125 1.6875 C3.31454108 2.64369733 -0.39553922 2.7914592 -4.5 2.75 C-5.66144531 2.74097656 -6.82289063 2.73195313 -8.01953125 2.72265625 C-8.89996094 2.71105469 -9.78039062 2.69945312 -10.6875 2.6875 C-7.9613524 -1.37560888 -4.3364724 -0.4575363 0 0 Z " fill="#BDE4E0" transform="translate(436.6875,266.3125)"/>
<path d="M0 0 C3.375 -0.125 3.375 -0.125 7 0 C9 2 9 2 9 6 C8.46375 5.690625 7.9275 5.38125 7.375 5.0625 C4.6015043 3.82172561 1.99957163 3.4090325 -1 3 C-0.67 2.01 -0.34 1.02 0 0 Z " fill="#7F7564" transform="translate(402,130)"/>
<path d="M0 0 C1.2065625 0.0309375 1.2065625 0.0309375 2.4375 0.0625 C3.0975 1.3825 3.7575 2.7025 4.4375 4.0625 C1.1375 4.3925 -2.1625 4.7225 -5.5625 5.0625 C-3.06867284 0.07484568 -3.06867284 0.07484568 0 0 Z " fill="#7E7463" transform="translate(248.5625,151.9375)"/>
<path d="M0 0 C0.33 0.99 0.66 1.98 1 3 C-0.74965358 3.05429959 -2.49979787 3.09292823 -4.25 3.125 C-5.22453125 3.14820313 -6.1990625 3.17140625 -7.203125 3.1953125 C-10.0196498 2.99862781 -11.60949036 2.44568916 -14 1 C-9.27685687 0.22887459 -4.78478822 -0.09764874 0 0 Z " fill="#BFE5E2" transform="translate(213,266)"/>
<path d="M0 0 C1.4540625 0.0309375 1.4540625 0.0309375 2.9375 0.0625 C3.5975 1.3825 4.2575 2.7025 4.9375 4.0625 C3.844375 4.041875 2.75125 4.02125 1.625 4 C-2.00634191 3.87705548 -2.00634191 3.87705548 -5.0625 5.0625 C-3.9375 0.08035714 -3.9375 0.08035714 0 0 Z " fill="#756E5F" transform="translate(383.0625,127.9375)"/>
<path d="M0 0 C0.99 0 1.98 0 3 0 C3.625 2.375 3.625 2.375 4 5 C3.34 5.66 2.68 6.32 2 7 C1.01 7 0.02 7 -1 7 C-1.04254356 5.00045254 -1.04080783 2.99958364 -1 1 C-0.67 0.67 -0.34 0.34 0 0 Z " fill="#827765" transform="translate(269,164)"/>
<path d="M0 0 C0.99 0.33 1.98 0.66 3 1 C3 2.65 3 4.3 3 6 C1.68 6.33 0.36 6.66 -1 7 C-1.625 4.625 -1.625 4.625 -2 2 C-1.34 1.34 -0.68 0.68 0 0 Z " fill="#706A5C" transform="translate(380,137)"/>
<path d="M0 0 C1.875 0.3125 1.875 0.3125 4 1 C6.24781532 4.37172297 7.23299545 7.02552186 8 11 C6.54296875 13.22265625 6.54296875 13.22265625 5 15 C4.83564453 13.75283203 4.83564453 13.75283203 4.66796875 12.48046875 C4.50941406 11.39378906 4.35085938 10.30710938 4.1875 9.1875 C3.96126953 7.56908203 3.96126953 7.56908203 3.73046875 5.91796875 C2.98387597 2.93559009 2.37924316 1.85776521 0 0 Z " fill="#E2DBDA" transform="translate(280,244)"/>
<path d="M0 0 C5.875 3.75 5.875 3.75 7 6 C4.69 6 2.38 6 0 6 C0 4.02 0 2.04 0 0 Z " fill="#EAFCFD" transform="translate(323,141)"/>
<path d="M0 0 C0.99 0 1.98 0 3 0 C3 0.99 3 1.98 3 3 C3.66 3.33 4.32 3.66 5 4 C2.36 4 -0.28 4 -3 4 C-1.6875 2 -1.6875 2 0 0 Z " fill="#B6DDDA" transform="translate(405,265)"/>
<path d="M0 0 C2.31 0.33 4.62 0.66 7 1 C7 1.66 7 2.32 7 3 C4.69 2.67 2.38 2.34 0 2 C0 1.34 0 0.68 0 0 Z " fill="#DB6865" transform="translate(252,181)"/>
</svg>
